<svg width="22" height="22" viewBox="0 0 22 22" fill="none" xmlns="http://www.w3.org/2000/svg">
<g id="ArrowFall">
<path id="Vector" fill-rule="evenodd" clip-rule="evenodd" d="M18.9876 4.96641C19.2488 5.21725 19.2573 5.63242 19.0065 5.8937L14.5993 10.4845C14.4756 10.6133 14.3048 10.6862 14.1262 10.6862C13.9476 10.6862 13.7768 10.6133 13.6531 10.4845L10.9782 7.69818L7.80839 11.0001L10.0668 13.1681L2.79346 15.277L4.6038 7.92367L6.86218 10.0917L10.5051 6.297C10.6288 6.16817 10.7996 6.09535 10.9782 6.09535C11.1568 6.09535 11.3276 6.16817 11.4513 6.297L14.1262 9.08333L18.0603 4.98534C18.3111 4.72405 18.7263 4.71558 18.9876 4.96641Z" fill="#F43749"/>
</g>
</svg>
