<svg width="22" height="22" viewBox="0 0 22 22" fill="none" xmlns="http://www.w3.org/2000/svg">
<g id="ArrowRise">
<path id="Vector" fill-rule="evenodd" clip-rule="evenodd" d="M11.5795 7.5483L18.8528 5.43945L17.0424 12.7928L14.784 10.6247L11.1411 14.4194C11.0175 14.5482 10.8466 14.6211 10.668 14.6211C10.4894 14.6211 10.3186 14.5482 10.1949 14.4194L7.52004 11.6331L3.58597 15.7311C3.33513 15.9924 2.91997 16.0008 2.65868 15.75C2.39739 15.4992 2.38892 15.084 2.63975 14.8227L7.04693 10.2319C7.1706 10.1031 7.34146 10.0303 7.52004 10.0303C7.69861 10.0303 7.86947 10.1031 7.99314 10.2319L10.668 13.0182L13.8378 9.71634L11.5795 7.5483Z" fill="#28A745"/>
</g>
</svg>
