<svg width="20" height="20" viewBox="0 0 20 20" fill="none" xmlns="http://www.w3.org/2000/svg">
<g id="Bell">
<path id="Vector" d="M16.2499 15H3.7499C3.64051 14.9993 3.53321 14.97 3.43872 14.9149C3.34423 14.8597 3.26587 14.7808 3.21146 14.6859C3.15705 14.591 3.1285 14.4835 3.12866 14.3741C3.12883 14.2647 3.1577 14.1572 3.2124 14.0625C3.72725 13.1719 4.3749 10.9227 4.3749 8.125C4.3749 6.63316 4.96753 5.20242 6.02243 4.14752C7.07732 3.09263 8.50806 2.5 9.9999 2.5C11.4917 2.5 12.9225 3.09263 13.9774 4.14752C15.0323 5.20242 15.6249 6.63316 15.6249 8.125C15.6249 10.9234 16.2733 13.1719 16.789 14.0625C16.8437 14.1574 16.8726 14.2649 16.8727 14.3745C16.8728 14.484 16.8441 14.5916 16.7895 14.6865C16.7349 14.7815 16.6563 14.8604 16.5616 14.9154C16.4669 14.9705 16.3594 14.9996 16.2499 15Z" fill="#1C1C1C" fill-opacity="0.1"/>
<path id="Vector_2" d="M17.3282 13.7453C16.8946 12.9984 16.2501 10.8852 16.2501 8.125C16.2501 6.4674 15.5916 4.87769 14.4195 3.70558C13.2474 2.53348 11.6577 1.875 10.0001 1.875C8.34247 1.875 6.75276 2.53348 5.58065 3.70558C4.40855 4.87769 3.75007 6.4674 3.75007 8.125C3.75007 10.8859 3.10476 12.9984 2.67116 13.7453C2.56044 13.9352 2.50174 14.1509 2.50098 14.3707C2.50023 14.5905 2.55745 14.8066 2.66687 14.9973C2.77629 15.1879 2.93404 15.3463 3.12422 15.4565C3.31439 15.5667 3.53027 15.6248 3.75007 15.625H6.93835C7.08255 16.3306 7.46603 16.9647 8.02393 17.4201C8.58182 17.8756 9.2799 18.1243 10.0001 18.1243C10.7202 18.1243 11.4183 17.8756 11.9762 17.4201C12.5341 16.9647 12.9176 16.3306 13.0618 15.625H16.2501C16.4698 15.6247 16.6856 15.5665 16.8757 15.4562C17.0657 15.346 17.2234 15.1875 17.3327 14.9969C17.442 14.8063 17.4992 14.5903 17.4984 14.3705C17.4976 14.1508 17.4389 13.9351 17.3282 13.7453ZM10.0001 16.875C9.61243 16.8749 9.23435 16.7546 8.91788 16.5308C8.60141 16.3069 8.3621 15.9905 8.23288 15.625H11.7673C11.638 15.9905 11.3987 16.3069 11.0823 16.5308C10.7658 16.7546 10.3877 16.8749 10.0001 16.875ZM3.75007 14.375C4.35163 13.3406 5.00007 10.9438 5.00007 8.125C5.00007 6.79892 5.52686 5.52715 6.46454 4.58947C7.40222 3.65178 8.67399 3.125 10.0001 3.125C11.3262 3.125 12.5979 3.65178 13.5356 4.58947C14.4733 5.52715 15.0001 6.79892 15.0001 8.125C15.0001 10.9414 15.6469 13.3383 16.2501 14.375H3.75007Z" fill="#1C1C1C"/>
</g>
</svg>
