<svg width="23" height="24" viewBox="0 0 23 24" fill="none" xmlns="http://www.w3.org/2000/svg">
<g id="UsersFour">
<path id="Vector" d="M2.44375 11.856C2.51926 11.9127 2.60519 11.9539 2.69662 11.9773C2.78805 12.0007 2.88321 12.0059 2.97665 11.9926C3.07009 11.9792 3.15998 11.9476 3.2412 11.8995C3.32242 11.8514 3.39337 11.7878 3.45 11.7123C3.88517 11.132 4.44946 10.6611 5.09817 10.3368C5.74689 10.0124 6.46221 9.84353 7.1875 9.84353C7.91279 9.84353 8.62811 10.0124 9.27683 10.3368C9.92554 10.6611 10.4898 11.132 10.925 11.7123C11.0395 11.8646 11.2098 11.9653 11.3985 11.9921C11.5872 12.0189 11.7789 11.9696 11.9313 11.8551C11.9856 11.8147 12.0337 11.7666 12.0741 11.7123C12.5093 11.132 13.0736 10.6611 13.7223 10.3368C14.371 10.0124 15.0863 9.84353 15.8116 9.84353C16.5369 9.84353 17.2522 10.0124 17.9009 10.3368C18.5496 10.6611 19.1139 11.132 19.5491 11.7123C19.6636 11.8648 19.834 11.9655 20.0228 11.9924C20.2116 12.0193 20.4033 11.9701 20.5558 11.8556C20.7083 11.7411 20.8091 11.5707 20.8359 11.3819C20.8628 11.1931 20.8136 11.0014 20.6991 10.8489C20.0629 9.99596 19.2145 9.32444 18.2383 8.90107C18.7735 8.41244 19.1484 7.77343 19.314 7.06789C19.4795 6.36236 19.4278 5.62326 19.1658 4.9476C18.9037 4.27194 18.4435 3.69129 17.8456 3.28185C17.2477 2.87242 16.5399 2.65332 15.8152 2.65332C15.0905 2.65332 14.3827 2.87242 13.7848 3.28185C13.1868 3.69129 12.7267 4.27194 12.4646 4.9476C12.2026 5.62326 12.1509 6.36236 12.3164 7.06789C12.482 7.77343 12.8569 8.41244 13.3921 8.90107C12.6872 9.20586 12.0469 9.6422 11.5054 10.1867C10.9639 9.6422 10.3235 9.20586 9.61867 8.90107C10.1539 8.41244 10.5288 7.77343 10.6943 7.06789C10.8599 6.36236 10.8082 5.62326 10.5462 4.9476C10.2841 4.27194 9.82394 3.69129 9.22599 3.28185C8.62804 2.87242 7.92028 2.65332 7.19559 2.65332C6.47089 2.65332 5.76313 2.87242 5.16518 3.28185C4.56724 3.69129 4.10704 4.27194 3.845 4.9476C3.58296 5.62326 3.53131 6.36236 3.69683 7.06789C3.86235 7.77343 4.23731 8.41244 4.7725 8.90107C3.79199 9.32306 2.93942 9.99502 2.3 10.8498C2.24337 10.9253 2.20216 11.0112 2.17874 11.1026C2.15531 11.1941 2.15013 11.2892 2.16347 11.3827C2.17682 11.4761 2.20844 11.566 2.25653 11.6472C2.30462 11.7284 2.36824 11.7994 2.44375 11.856ZM15.8125 4.09353C16.239 4.09353 16.6559 4.21999 17.0104 4.45692C17.365 4.69385 17.6414 5.03061 17.8046 5.42462C17.9678 5.81862 18.0105 6.25217 17.9273 6.67044C17.8441 7.08871 17.6388 7.47292 17.3372 7.77448C17.0356 8.07603 16.6514 8.2814 16.2332 8.3646C15.8149 8.4478 15.3813 8.40509 14.9873 8.24189C14.5933 8.07869 14.2566 7.80232 14.0196 7.44773C13.7827 7.09313 13.6563 6.67624 13.6563 6.24978C13.6563 5.6779 13.8834 5.12945 14.2878 4.72508C14.6922 4.3207 15.2406 4.09353 15.8125 4.09353ZM7.1875 4.09353C7.61397 4.09353 8.03086 4.21999 8.38545 4.45692C8.74004 4.69385 9.01641 5.03061 9.17962 5.42462C9.34282 5.81862 9.38552 6.25217 9.30232 6.67044C9.21912 7.08871 9.01376 7.47292 8.7122 7.77448C8.41064 8.07603 8.02644 8.2814 7.60816 8.3646C7.18989 8.4478 6.75634 8.40509 6.36234 8.24189C5.96834 8.07869 5.63158 7.80232 5.39464 7.44773C5.15771 7.09313 5.03125 6.67624 5.03125 6.24978C5.03125 5.6779 5.25843 5.12945 5.6628 4.72508C6.06718 4.3207 6.61563 4.09353 7.1875 4.09353ZM18.2383 18.2448C18.7735 17.7562 19.1484 17.1172 19.314 16.4116C19.4795 15.7061 19.4278 14.967 19.1658 14.2914C18.9037 13.6157 18.4435 13.035 17.8456 12.6256C17.2477 12.2162 16.5399 11.9971 15.8152 11.9971C15.0905 11.9971 14.3827 12.2162 13.7848 12.6256C13.1868 13.035 12.7267 13.6157 12.4646 14.2914C12.2026 14.967 12.1509 15.7061 12.3164 16.4116C12.482 17.1172 12.8569 17.7562 13.3921 18.2448C12.6872 18.5496 12.0469 18.986 11.5054 19.5305C10.9639 18.986 10.3235 18.5496 9.61867 18.2448C10.1539 17.7562 10.5288 17.1172 10.6943 16.4116C10.8599 15.7061 10.8082 14.967 10.5462 14.2914C10.2841 13.6157 9.82394 13.035 9.22599 12.6256C8.62804 12.2162 7.92028 11.9971 7.19559 11.9971C6.47089 11.9971 5.76313 12.2162 5.16518 12.6256C4.56724 13.035 4.10704 13.6157 3.845 14.2914C3.58296 14.967 3.53131 15.7061 3.69683 16.4116C3.86235 17.1172 4.23731 17.7562 4.7725 18.2448C3.79199 18.6668 2.93942 19.3388 2.3 20.1935C2.24337 20.269 2.20216 20.355 2.17874 20.4464C2.15531 20.5378 2.15013 20.633 2.16347 20.7264C2.17682 20.8199 2.20844 20.9098 2.25653 20.991C2.30462 21.0722 2.36824 21.1431 2.44375 21.1998C2.51926 21.2564 2.60519 21.2976 2.69662 21.321C2.78805 21.3445 2.88321 21.3497 2.97665 21.3363C3.07009 21.323 3.15998 21.2913 3.2412 21.2432C3.32242 21.1952 3.39337 21.1315 3.45 21.056C3.88517 20.4758 4.44946 20.0049 5.09817 19.6805C5.74689 19.3561 6.46221 19.1873 7.1875 19.1873C7.91279 19.1873 8.62811 19.3561 9.27683 19.6805C9.92554 20.0049 10.4898 20.4758 10.925 21.056C11.0395 21.2084 11.2098 21.309 11.3985 21.3358C11.5872 21.3626 11.7789 21.3133 11.9313 21.1989C11.9856 21.1585 12.0337 21.1104 12.0741 21.056C12.5093 20.4758 13.0736 20.0049 13.7223 19.6805C14.371 19.3561 15.0863 19.1873 15.8116 19.1873C16.5369 19.1873 17.2522 19.3561 17.9009 19.6805C18.5496 20.0049 19.1139 20.4758 19.5491 21.056C19.6636 21.2085 19.834 21.3093 20.0228 21.3362C20.2116 21.363 20.4033 21.3138 20.5558 21.1993C20.7083 21.0848 20.8091 20.9145 20.8359 20.7257C20.8628 20.5369 20.8136 20.3451 20.6991 20.1926C20.0629 19.3397 19.2145 18.6682 18.2383 18.2448ZM7.1875 13.4373C7.61397 13.4373 8.03086 13.5637 8.38545 13.8007C8.74004 14.0376 9.01641 14.3744 9.17962 14.7684C9.34282 15.1624 9.38552 15.5959 9.30232 16.0142C9.21912 16.4325 9.01376 16.8167 8.7122 17.1182C8.41064 17.4198 8.02644 17.6251 7.60816 17.7083C7.18989 17.7915 6.75634 17.7488 6.36234 17.5856C5.96834 17.4224 5.63158 17.1461 5.39464 16.7915C5.15771 16.4369 5.03125 16.02 5.03125 15.5935C5.03125 15.0217 5.25843 14.4732 5.6628 14.0688C6.06718 13.6645 6.61563 13.4373 7.1875 13.4373ZM15.8125 13.4373C16.239 13.4373 16.6559 13.5637 17.0104 13.8007C17.365 14.0376 17.6414 14.3744 17.8046 14.7684C17.9678 15.1624 18.0105 15.5959 17.9273 16.0142C17.8441 16.4325 17.6388 16.8167 17.3372 17.1182C17.0356 17.4198 16.6514 17.6251 16.2332 17.7083C15.8149 17.7915 15.3813 17.7488 14.9873 17.5856C14.5933 17.4224 14.2566 17.1461 14.0196 16.7915C13.7827 16.4369 13.6563 16.02 13.6563 15.5935C13.6563 15.0217 13.8834 14.4732 14.2878 14.0688C14.6922 13.6645 15.2406 13.4373 15.8125 13.4373Z" fill="#EF7214"/>
</g>
</svg>
