<svg width="29" height="28" viewBox="0 0 29 28" fill="none" xmlns="http://www.w3.org/2000/svg">
<g id="House">
<path id="Vector" d="M24.125 12.6376V22.7504C24.125 22.9825 24.0328 23.205 23.8687 23.3691C23.7046 23.5332 23.4821 23.6254 23.25 23.6254H18C17.7679 23.6254 17.5454 23.5332 17.3813 23.3691C17.2172 23.205 17.125 22.9825 17.125 22.7504V17.5004C17.125 17.2683 17.0328 17.0458 16.8687 16.8817C16.7046 16.7176 16.4821 16.6254 16.25 16.6254H12.75C12.5179 16.6254 12.2954 16.7176 12.1313 16.8817C11.9672 17.0458 11.875 17.2683 11.875 17.5004V22.7504C11.875 22.9825 11.7828 23.205 11.6187 23.3691C11.4546 23.5332 11.2321 23.6254 11 23.6254H5.75C5.51794 23.6254 5.29538 23.5332 5.13128 23.3691C4.96719 23.205 4.875 22.9825 4.875 22.7504V12.6376C4.87501 12.5157 4.90051 12.3951 4.94986 12.2836C4.99921 12.1721 5.07132 12.0721 5.16156 11.9901L13.9116 3.72791C14.0727 3.58127 14.2827 3.5 14.5005 3.5C14.7184 3.5 14.9284 3.58127 15.0895 3.72791L23.8395 11.9901C23.9296 12.0722 24.0015 12.1722 24.0506 12.2837C24.0998 12.3952 24.1251 12.5157 24.125 12.6376Z" fill="black" fill-opacity="0.05"/>
<path id="Vector_2" d="M24.4345 11.3499L15.6845 3.09431C15.6803 3.09058 15.6762 3.08656 15.6725 3.08228C15.3503 2.7893 14.9305 2.62695 14.4951 2.62695C14.0596 2.62695 13.6398 2.7893 13.3177 3.08228L13.3056 3.09431L4.56547 11.3499C4.38719 11.5139 4.24487 11.713 4.14754 11.9348C4.0502 12.1566 3.99996 12.3962 4 12.6384V22.7501C4 23.2142 4.18437 23.6593 4.51256 23.9875C4.84075 24.3157 5.28587 24.5001 5.75 24.5001H11C11.4641 24.5001 11.9092 24.3157 12.2374 23.9875C12.5656 23.6593 12.75 23.2142 12.75 22.7501V17.5001H16.25V22.7501C16.25 23.2142 16.4344 23.6593 16.7626 23.9875C17.0908 24.3157 17.5359 24.5001 18 24.5001H23.25C23.7141 24.5001 24.1592 24.3157 24.4874 23.9875C24.8156 23.6593 25 23.2142 25 22.7501V12.6384C25 12.3962 24.9498 12.1566 24.8525 11.9348C24.7551 11.713 24.6128 11.5139 24.4345 11.3499ZM23.25 22.7501H18V17.5001C18 17.036 17.8156 16.5908 17.4874 16.2627C17.1592 15.9345 16.7141 15.7501 16.25 15.7501H12.75C12.2859 15.7501 11.8408 15.9345 11.5126 16.2627C11.1844 16.5908 11 17.036 11 17.5001V22.7501H5.75V12.6384L5.76203 12.6274L14.5 4.37509L23.2391 12.6252L23.2511 12.6362L23.25 22.7501Z" fill="black"/>
</g>
</svg>
