<?xml version="1.0" encoding="UTF-8"?> <svg xmlns="http://www.w3.org/2000/svg" id="Layer_2" data-name="Layer 2" viewBox="0 0 512 512"> <defs> <style> .cls-1 { fill: #fff; } .cls-1, .cls-2 { fill-rule: evenodd; stroke-width: 0px; } .cls-2 { fill: #ef7214; } </style> </defs> <g id="Layer_1-2" data-name="Layer 1"> <g> <path class="cls-2" d="M511.06,123.26c-4.76-31.66-17.88-58.27-39.71-80.52C446.83,17.75,414.35,2.86,379.18.47c-9.33-.64-238.85-.61-247.71.03-17.71,1.27-35.86,6.29-52.58,14.54-12.76,6.3-22.92,13.24-32.95,22.52C21.41,60.24,6.49,88.21,1.2,121.43l-1.2,7.56v253.97l1.2,7.56c5.22,32.81,20.05,60.86,43.99,83.19,24.17,22.55,55.13,35.74,88.65,37.77,11.25.68,232.92.71,243.94.03,27.37-1.68,52.24-10.31,74.07-25.71,25.49-17.98,44.76-44.3,53.83-73.53,2.69-8.66,4.04-14.73,5.36-24.1.91-6.42.96-13.41.96-132.72s-.06-126.3-.94-132.19ZM209.67,405.27l-1,1.97-5.3-.14-5.31-.16-4.04-10.16c-2.22-5.6-8.86-22.26-14.73-37.03-5.88-14.77-13.45-33.78-16.81-42.24-44.1-110.84-45.2-113.52-50.8-124.07-12.41-23.35-23.56-32.12-44.16-34.73l-2.48-.31v-10.28l4.05-.33c2.23-.18,4.64-.42,5.36-.53,3.73-.55,21.04.24,26.64,1.23,24.56,4.3,43.32,16.74,56.66,37.55,7.5,11.71,8.7,14.43,37.14,84.54,10.11,24.91,16.48,40.57,20.24,49.8,9.87,24.23,14.03,34.73,14.09,35.57.06.92-17.6,45.47-19.55,49.32ZM355.61,400.69l-2.56,6.25-5.49.15c-4.1.11-5.56-.02-5.75-.52-.86-2.15-32.84-81.43-40.89-101.31-18.68-46.19-21.65-53.49-24.79-61.02-1.19-2.87-4.13-10.03-6.53-15.9-16.69-40.9-28.36-58.46-43.65-65.67-2.98-1.41-9.21-3.08-14.75-3.95l-1.96-.31v-10.3l3.26-.3c1.8-.17,4.1-.4,5.1-.52,4.73-.55,21.4.19,27.17,1.2,26.1,4.58,44.18,17.01,58.43,40.17,5.11,8.31,7.9,14.67,26.46,60.28,1.52,3.72,8.81,21.56,16.19,39.63,20.37,49.83,26.92,66.28,26.92,67.69,0,1.8-5.04,14.85-17.16,44.43ZM446.49,175.48c-1.5,10.06-9.84,18.41-20.07,20.1-10.53,1.74-21.28-3.79-26-13.38-1.77-3.61-1.79-3.72-1.79-10.71s.02-7.09,1.79-10.7c3.12-6.33,8.82-10.97,16.07-13.05,3.32-.96,9.85-.57,14.11.85,11.02,3.66,17.67,14.91,15.89,26.89Z"></path> <path class="cls-1" d="M446.49,175.48c-1.5,10.06-9.84,18.41-20.07,20.1-10.53,1.74-21.28-3.79-26-13.38-1.77-3.61-1.79-3.72-1.79-10.71s.02-7.09,1.79-10.7c3.12-6.33,8.82-10.97,16.07-13.05,3.32-.96,9.85-.57,14.11.85,11.02,3.66,17.67,14.91,15.89,26.89Z"></path> <path class="cls-1" d="M372.77,356.26c0,1.8-5.04,14.85-17.16,44.43l-2.56,6.25-5.49.15c-4.1.11-5.56-.02-5.75-.52-.86-2.15-32.84-81.43-40.89-101.31-18.68-46.19-21.65-53.49-24.79-61.02-1.19-2.87-4.13-10.03-6.53-15.9-16.69-40.9-28.36-58.46-43.65-65.67-2.98-1.41-9.21-3.08-14.75-3.95l-1.96-.31v-10.3l3.26-.3c1.8-.17,4.1-.4,5.1-.52,4.73-.55,21.4.19,27.17,1.2,26.1,4.58,44.18,17.01,58.43,40.17,5.11,8.31,7.9,14.67,26.46,60.28,1.52,3.72,8.81,21.56,16.19,39.63,20.37,49.83,26.92,66.28,26.92,67.69Z"></path> <path class="cls-1" d="M229.22,355.95c.06.92-17.6,45.47-19.55,49.32l-1,1.97-5.3-.14-5.31-.16-4.04-10.16c-2.22-5.6-8.86-22.26-14.73-37.03-5.88-14.77-13.45-33.78-16.81-42.24-44.1-110.84-45.2-113.52-50.8-124.07-12.41-23.35-23.56-32.12-44.16-34.73l-2.48-.31v-10.28l4.05-.33c2.23-.18,4.64-.42,5.36-.53,3.73-.55,21.04.24,26.64,1.23,24.56,4.3,43.32,16.74,56.66,37.55,7.5,11.71,8.7,14.43,37.14,84.54,10.11,24.91,16.48,40.57,20.24,49.8,9.87,24.23,14.03,34.73,14.09,35.57Z"></path> </g> </g> </svg> 