<?xml version="1.0" encoding="UTF-8"?> <svg xmlns="http://www.w3.org/2000/svg" id="Layer_2" data-name="Layer 2" viewBox="0 0 1736.64 400"> <defs> <style> .cls-1 { fill: #151515; } .cls-1, .cls-2 { fill-rule: evenodd; stroke-width: 0px; } .cls-2 { fill: #ef7214; } </style> </defs> <g id="Layer_1-2" data-name="Layer 1"> <g> <path class="cls-1" d="M1732.26,289.8c-14.96-25.76-37.1-63.75-38.56-66.16l-1.72-2.84,5.32-1.91c10.15-3.63,20.01-10.63,25.86-18.35,4.11-5.43,8.91-15.19,10.43-21.25,2.37-9.4,2.21-22.18-.42-32.49-1.21-4.76-4.88-12.59-8.22-17.54-8.68-12.85-24.18-21.76-44.36-25.49-4.03-.75-13.42-.96-50.31-1.14-24.95-.12-45.7-.07-46.13.11-.61.27-.77,20.41-.77,97.75v97.41h47.81v-73.56h11.5l5.98,10.88c3.29,5.98,7.28,13.22,8.88,16.09,2.67,4.8,10.87,19.69,21.26,38.62l4.2,7.66,26.8.16c14.74.09,26.8.03,26.8-.12s-1.97-3.68-4.38-7.82ZM1685.16,176.83c-2.04,5.23-6.97,10.04-12.27,11.97-3.79,1.38-4.88,1.46-22.83,1.69l-18.85.24v-48.61l18.85.24c17.95.23,19.04.31,22.83,1.69,5.28,1.92,10.21,6.72,12.28,11.97,2.08,5.26,2.07,15.47-.02,20.83Z"></path> <polygon class="cls-1" points="1480.4 259.89 1552.75 259.89 1552.75 297.89 1433.22 297.89 1433.22 102.35 1492.83 102.51 1552.44 102.67 1552.6 121.82 1552.77 140.98 1480.42 140.98 1480.42 180.19 1544.47 180.51 1544.47 216.68 1480.73 217.29 1480.57 238.59 1480.4 259.89"></polygon> <path class="cls-1" d="M1404.53,178.52c-8.72-40.14-36.09-66.32-77.35-73.98-2.87-.53-9.35-1.24-14.4-1.56-10.3-.67-80.78-.85-81.42-.21-.23.22-.41,44.22-.41,97.77v97.36h41.53c49.2-.01,53.43-.34,69.11-5.33,29.45-9.38,50.7-30.43,60-59.46,3.75-11.68,4.35-16.31,4.33-33.28-.02-13.19-.19-15.78-1.39-21.3ZM1351.99,229.35c-5.61,11.54-15.66,20.14-28.18,24.15-8.04,2.57-15.08,3.32-31.11,3.32h-14.56s0-113.39,0-113.39h14.48c16.64,0,24.66.93,32.31,3.71,13.44,4.9,23.64,14.75,28.59,27.61,2.94,7.61,3.73,11.82,4.12,21.85.55,14.2-1.01,23.21-5.65,32.75Z"></path> <path class="cls-1" d="M1196.15,202.43l-.15,95.47h-23.75s-23.75-.02-23.75-.02l-10.82-16.39c-5.95-9.01-18.93-28.66-28.85-43.66-9.92-15.01-19.92-30.17-22.24-33.71s-7.19-10.94-10.84-16.43l-6.63-10v120.22h-47.81v-97.36c0-53.55.19-97.55.42-97.78.23-.23,10.86-.4,23.62-.39,21.1.04,23.29.13,24.07,1.08.48.58,4.58,6.71,9.11,13.61,4.54,6.91,15.38,23.4,24.09,36.64,21.95,33.38,24.95,37.95,35.74,54.41,5.22,7.96,9.7,14.61,9.96,14.77.26,0,.47-26.99.47-60.12v-60.41h47.12l.19,2.3c.1,1.26.12,45.26.03,97.77Z"></path> <path class="cls-1" d="M984.18,153.54c-8.83-17.74-21.17-30.79-38.27-40.49-11.43-6.47-23.48-10.46-36.96-12.21-6.45-.83-19.03-1.12-24.03-.54-16.19,1.88-30.2,6.27-41.77,13.1-31.14,18.4-48.64,49.53-48.64,86.52,0,28.09,9.89,52.54,28.92,71.48,20.17,20.09,49.46,30.56,79.14,28.29,13.52-1.02,22.64-3.24,34.52-8.39,22.78-9.86,41.28-28.97,50.48-52.16,5.39-13.58,7.02-22.78,7.01-39.63,0-19.11-2.49-30.1-10.4-45.97ZM945.08,215.08c-2.62,11.54-7.18,20.21-14.53,27.59-9.59,9.62-20.14,13.69-35.52,13.67-15.92-.02-26.44-3.98-36.19-13.61-7.45-7.37-11.6-15.52-14.11-27.7-1.14-5.54-1.26-7.72-1-17.66.39-14.67,2.19-21.97,7.69-31.16,7.85-13.14,20.47-20.97,36.67-22.75,8.96-.99,19.99.34,27.26,3.28,15.02,6.07,25.86,19.84,29.7,37.75,1.51,7.01,1.51,23.99.01,30.59Z"></path> <path class="cls-1" d="M778.2,103.89c-.04.67-1.78,7.7-3.86,15.63-2.09,7.93-6.52,24.89-9.86,37.7s-7.61,29.23-9.51,36.47c-1.89,7.25-4.37,16.76-5.5,21.15-7.94,30.61-18.7,71.89-20.2,77.54l-1.39,5.21-57.75.32-.59-2.3c-.86-3.35-2.77-11.17-17.3-71.07-7.21-29.72-13.3-53.72-13.52-53.32-.37.65-12.5,48.63-26.73,105.69l-5.23,20.99h-57.8l-1.27-5.06c-.69-2.78-5.61-22.16-10.93-43.06-5.31-20.9-12.77-50.28-16.58-65.28-3.8-15.01-9.98-39.36-13.72-54.14-3.75-14.77-6.65-27.11-6.45-27.43.44-.7,49.73-.78,50.16-.07.4.65,2.14,9.26,13.57,67.24,12.45,63.15,14.61,73.86,14.84,73.62.23-.23,3.71-13.89,6.56-25.81,9.26-38.57,28.08-114.72,28.45-115.09.26-.26,12.04-.39,26.17-.31l25.71.16,1.92,7.66c1.06,4.22,3.5,14.42,5.42,22.68,1.92,8.26,4.7,20.12,6.15,26.36,4.59,19.57,9.46,40.29,12.54,53.33,1.63,6.91,3.86,16.43,4.94,21.15,1.09,4.72,2.16,8.93,2.39,9.36.23.43,6.76-31.02,14.51-69.88l14.1-70.66h25.41c25.02,0,25.41.02,25.33,1.23Z"></path> </g> <path class="cls-2" d="M399.27,96.29c-3.71-24.73-13.97-45.52-31.02-62.91C349.09,13.86,323.71,2.23,296.23.36c-7.29-.5-186.6-.47-193.52.02-13.84.99-28.02,4.91-41.08,11.36-9.97,4.92-17.9,10.34-25.74,17.59C16.73,47.05,5.07,68.91.94,94.86l-.94,5.91v198.41l.94,5.91c4.08,25.63,15.67,47.54,34.37,64.99,18.89,17.62,43.07,27.92,69.26,29.51,8.79.53,181.97.55,190.58.02,21.38-1.32,40.81-8.06,57.87-20.09,19.91-14.04,34.97-34.61,42.05-57.44,2.1-6.77,3.16-11.51,4.19-18.83.71-5.02.75-10.47.75-103.69s-.04-98.67-.73-103.28ZM163.81,316.61l-.78,1.54-4.14-.11-4.15-.12-3.16-7.94c-1.73-4.37-6.92-17.38-11.51-28.93s-10.5-26.39-13.13-33c-34.45-86.59-35.31-88.69-39.69-96.93-9.69-18.24-18.4-25.1-34.49-27.13l-1.94-.24v-8.03l3.16-.26c1.74-.14,3.62-.33,4.18-.41,2.92-.43,16.44.19,20.82.96,19.19,3.37,33.84,13.08,44.26,29.34,5.87,9.15,6.8,11.28,29.02,66.04,7.9,19.46,12.87,31.7,15.81,38.91,7.71,18.93,10.96,27.14,11.01,27.79.04.71-13.75,35.52-15.27,38.53ZM277.82,313.03l-2,4.89-4.29.11c-3.2.09-4.34-.02-4.49-.41-.67-1.68-25.65-63.61-31.94-79.15-14.6-36.08-16.91-41.79-19.37-47.67-.93-2.24-3.23-7.83-5.11-12.43-13.04-31.95-22.16-45.67-34.1-51.3-2.33-1.1-7.2-2.4-11.53-3.08l-1.53-.24v-8.05l2.55-.24c1.4-.13,3.2-.31,3.98-.4,3.7-.43,16.72.14,21.22.93,20.39,3.58,34.52,13.29,45.65,31.39,3.99,6.49,6.18,11.46,20.68,47.09,1.19,2.91,6.88,16.85,12.65,30.96,15.91,38.93,21.02,51.78,21.02,52.89,0,1.41-3.93,11.6-13.4,34.71ZM348.82,137.09c-1.17,7.86-7.69,14.38-15.68,15.71-8.22,1.36-16.62-2.97-20.31-10.46-1.38-2.82-1.4-2.9-1.4-8.36s.02-5.54,1.4-8.36c2.44-4.95,6.89-8.57,12.56-10.2,2.6-.75,7.7-.44,11.02.66,8.61,2.86,13.8,11.65,12.41,21.01Z"></path> </g> </svg> 