<svg width="23" height="24" viewBox="0 0 23 24" fill="none" xmlns="http://www.w3.org/2000/svg">
<g id="PencilSimpleLine">
<path id="Vector" d="M20.4233 7.09162L16.4082 3.0774C16.2747 2.94388 16.1162 2.83797 15.9418 2.7657C15.7673 2.69344 15.5804 2.65625 15.3916 2.65625C15.2028 2.65625 15.0158 2.69344 14.8414 2.7657C14.667 2.83797 14.5085 2.94388 14.375 3.0774L3.29637 14.156C3.16231 14.289 3.05602 14.4474 2.98368 14.6218C2.91134 14.7962 2.8744 14.9833 2.87501 15.1722V19.1873C2.87501 19.5685 3.02646 19.9342 3.29604 20.2037C3.56562 20.4733 3.93126 20.6248 4.31251 20.6248H19.4063C19.5969 20.6248 19.7797 20.5491 19.9145 20.4143C20.0493 20.2795 20.125 20.0967 20.125 19.906C20.125 19.7154 20.0493 19.5326 19.9145 19.3978C19.7797 19.263 19.5969 19.1873 19.4063 19.1873H10.3608L20.4233 9.12478C20.5568 8.99129 20.6627 8.83281 20.735 8.65838C20.8072 8.48396 20.8444 8.297 20.8444 8.1082C20.8444 7.9194 20.8072 7.73244 20.735 7.55802C20.6627 7.38359 20.5568 7.22511 20.4233 7.09162ZM8.32762 19.1873H4.31251V15.1722L12.2188 7.26591L16.2339 11.281L8.32762 19.1873ZM17.25 10.2649L13.2358 6.24978L15.392 4.09353L19.4063 8.10865L17.25 10.2649Z" fill="#EF7214"/>
</g>
</svg>
