<svg width="17" height="17" viewBox="0 0 17 17" fill="none" xmlns="http://www.w3.org/2000/svg">
<g id="Ruler">
<path id="Vector" d="M15.6267 4.87207L12.1278 1.37378C12.0291 1.2751 11.912 1.19681 11.7831 1.1434C11.6541 1.08999 11.516 1.0625 11.3764 1.0625C11.2369 1.0625 11.0987 1.08999 10.9697 1.1434C10.8408 1.19681 10.7237 1.2751 10.625 1.37378L1.3733 10.6248C1.27461 10.7235 1.19632 10.8406 1.14291 10.9696C1.0895 11.0985 1.06201 11.2367 1.06201 11.3762C1.06201 11.5158 1.0895 11.654 1.14291 11.7829C1.19632 11.9118 1.27461 12.0289 1.3733 12.1276L4.87224 15.6259C4.97091 15.7246 5.08805 15.8029 5.21697 15.8563C5.3459 15.9097 5.48408 15.9372 5.62363 15.9372C5.76318 15.9372 5.90136 15.9097 6.03029 15.8563C6.15921 15.8029 6.27635 15.7246 6.37502 15.6259L15.6267 6.37484C15.7254 6.27617 15.8037 6.15903 15.8571 6.03011C15.9105 5.90119 15.938 5.763 15.938 5.62345C15.938 5.4839 15.9105 5.34572 15.8571 5.2168C15.8037 5.08787 15.7254 4.97073 15.6267 4.87207ZM5.6233 14.8748L2.12502 11.3759L4.25002 9.25089L5.99916 11.0007C6.04851 11.0501 6.10711 11.0892 6.1716 11.1159C6.23609 11.1426 6.30521 11.1564 6.37502 11.1564C6.44482 11.1564 6.51394 11.1426 6.57843 11.1159C6.64292 11.0892 6.70152 11.0501 6.75087 11.0007C6.80023 10.9513 6.83939 10.8927 6.8661 10.8283C6.89281 10.7638 6.90656 10.6946 6.90656 10.6248C6.90656 10.555 6.89281 10.4859 6.8661 10.4214C6.83939 10.3569 6.80023 10.2983 6.75087 10.249L5.00107 8.49984L6.37502 7.12589L8.12416 8.8757C8.22384 8.97538 8.35904 9.03139 8.50002 9.03139C8.64099 9.03139 8.77619 8.97538 8.87587 8.8757C8.97556 8.77601 9.03156 8.64081 9.03156 8.49984C9.03156 8.35886 8.97556 8.22366 8.87587 8.12398L7.12607 6.37484L8.50002 5.00089L10.2492 6.7507C10.2985 6.80006 10.3571 6.83921 10.4216 6.86592C10.4861 6.89264 10.5552 6.90638 10.625 6.90638C10.6948 6.90638 10.7639 6.89264 10.8284 6.86592C10.8929 6.83921 10.9515 6.80006 11.0009 6.7507C11.0502 6.70134 11.0894 6.64274 11.1161 6.57825C11.1428 6.51376 11.1566 6.44464 11.1566 6.37484C11.1566 6.30504 11.1428 6.23592 11.1161 6.17143C11.0894 6.10694 11.0502 6.04834 11.0009 5.99898L9.25107 4.24984L11.3761 2.12484L14.875 5.62379L5.6233 14.8748Z" fill="#1C1C1C"/>
</g>
</svg>
