<svg width="17" height="16" viewBox="0 0 17 16" fill="none" xmlns="http://www.w3.org/2000/svg">
<g id="Scan">
<path id="Vector" d="M14.5 2.5V5C14.5 5.13261 14.4473 5.25979 14.3536 5.35355C14.2598 5.44732 14.1326 5.5 14 5.5C13.8674 5.5 13.7402 5.44732 13.6464 5.35355C13.5527 5.25979 13.5 5.13261 13.5 5V3H11.5C11.3674 3 11.2402 2.94732 11.1464 2.85355C11.0527 2.75979 11 2.63261 11 2.5C11 2.36739 11.0527 2.24021 11.1464 2.14645C11.2402 2.05268 11.3674 2 11.5 2H14C14.1326 2 14.2598 2.05268 14.3536 2.14645C14.4473 2.24021 14.5 2.36739 14.5 2.5ZM5.5 13H3.5V11C3.5 10.8674 3.44732 10.7402 3.35355 10.6464C3.25979 10.5527 3.13261 10.5 3 10.5C2.86739 10.5 2.74021 10.5527 2.64645 10.6464C2.55268 10.7402 2.5 10.8674 2.5 11V13.5C2.5 13.6326 2.55268 13.7598 2.64645 13.8536C2.74021 13.9473 2.86739 14 3 14H5.5C5.63261 14 5.75979 13.9473 5.85355 13.8536C5.94732 13.7598 6 13.6326 6 13.5C6 13.3674 5.94732 13.2402 5.85355 13.1464C5.75979 13.0527 5.63261 13 5.5 13ZM14 10.5C13.8674 10.5 13.7402 10.5527 13.6464 10.6464C13.5527 10.7402 13.5 10.8674 13.5 11V13H11.5C11.3674 13 11.2402 13.0527 11.1464 13.1464C11.0527 13.2402 11 13.3674 11 13.5C11 13.6326 11.0527 13.7598 11.1464 13.8536C11.2402 13.9473 11.3674 14 11.5 14H14C14.1326 14 14.2598 13.9473 14.3536 13.8536C14.4473 13.7598 14.5 13.6326 14.5 13.5V11C14.5 10.8674 14.4473 10.7402 14.3536 10.6464C14.2598 10.5527 14.1326 10.5 14 10.5ZM3 5.5C3.13261 5.5 3.25979 5.44732 3.35355 5.35355C3.44732 5.25979 3.5 5.13261 3.5 5V3H5.5C5.63261 3 5.75979 2.94732 5.85355 2.85355C5.94732 2.75979 6 2.63261 6 2.5C6 2.36739 5.94732 2.24021 5.85355 2.14645C5.75979 2.05268 5.63261 2 5.5 2H3C2.86739 2 2.74021 2.05268 2.64645 2.14645C2.55268 2.24021 2.5 2.36739 2.5 2.5V5C2.5 5.13261 2.55268 5.25979 2.64645 5.35355C2.74021 5.44732 2.86739 5.5 3 5.5ZM11 11.5H6C5.73478 11.5 5.48043 11.3946 5.29289 11.2071C5.10536 11.0196 5 10.7652 5 10.5V5.5C5 5.23478 5.10536 4.98043 5.29289 4.79289C5.48043 4.60536 5.73478 4.5 6 4.5H11C11.2652 4.5 11.5196 4.60536 11.7071 4.79289C11.8946 4.98043 12 5.23478 12 5.5V10.5C12 10.7652 11.8946 11.0196 11.7071 11.2071C11.5196 11.3946 11.2652 11.5 11 11.5ZM6 10.5H11V5.5H6V10.5Z" fill="white"/>
</g>
</svg>
