<svg width="29" height="28" viewBox="0 0 29 28" fill="none" xmlns="http://www.w3.org/2000/svg">
<g id="Search">
<circle id="Ellipse 1" cx="13" cy="13" r="9" fill="#F2F2F2"/>
<path id="Vector" d="M25.6133 25.1242C25.4499 25.2851 25.23 25.3754 25.0008 25.3758C24.7684 25.3748 24.5453 25.2848 24.3773 25.1242L19.6523 20.3883C17.6624 22.0598 15.1039 22.8984 12.5106 22.7294C9.91728 22.5604 7.48932 21.3968 5.73311 19.4812C3.9769 17.5655 3.02804 15.0459 3.08441 12.4477C3.14078 9.84946 4.19804 7.37332 6.03568 5.53568C7.87332 3.69804 10.3495 2.64078 12.9477 2.58441C15.5459 2.52804 18.0655 3.4769 19.9812 5.23311C21.8968 6.98932 23.0604 9.41728 23.2294 12.0106C23.3984 14.6039 22.5598 17.1624 20.8883 19.1523L25.6133 23.8773C25.696 23.9588 25.7616 24.0558 25.8064 24.1628C25.8512 24.2699 25.8743 24.3847 25.8743 24.5008C25.8743 24.6168 25.8512 24.7317 25.8064 24.8387C25.7616 24.9458 25.696 25.0428 25.6133 25.1242ZM13.1883 21.0008C14.8323 21.0008 16.4395 20.5133 17.8065 19.5999C19.1734 18.6865 20.2389 17.3882 20.868 15.8693C21.4972 14.3504 21.6618 12.6791 21.3411 11.0666C21.0203 9.45412 20.2286 7.97298 19.0661 6.81045C17.9036 5.64793 16.4224 4.85624 14.81 4.5355C13.1975 4.21476 11.5261 4.37938 10.0072 5.00853C8.48831 5.63768 7.19008 6.70312 6.27669 8.0701C5.3633 9.43709 4.87578 11.0442 4.87578 12.6883C4.87867 14.892 5.75538 17.0046 7.31365 18.5629C8.87192 20.1212 10.9846 20.9979 13.1883 21.0008Z" fill="#1C1C1C"/>
</g>
</svg>
