<svg width="14" height="15" viewBox="0 0 14 15" fill="none" xmlns="http://www.w3.org/2000/svg">
<path id="Vector" d="M6.31656 10.8073C6.37467 10.8654 6.42077 10.9343 6.45222 11.0102C6.48367 11.0861 6.49986 11.1674 6.49986 11.2495C6.49986 11.3316 6.48367 11.413 6.45222 11.4889C6.42077 11.5647 6.37467 11.6337 6.31656 11.6917L3.81656 14.1917C3.75851 14.2498 3.68958 14.2959 3.61371 14.3274C3.53783 14.3588 3.45651 14.375 3.37437 14.375C3.29224 14.375 3.21091 14.3588 3.13503 14.3274C3.05916 14.2959 2.99023 14.2498 2.93218 14.1917L0.432183 11.6917C0.374115 11.6336 0.328052 11.5647 0.296625 11.4888C0.265199 11.413 0.249023 11.3316 0.249023 11.2495C0.249023 11.1674 0.265199 11.0861 0.296625 11.0102C0.328052 10.9343 0.374115 10.8654 0.432183 10.8073C0.549459 10.6901 0.708518 10.6242 0.874371 10.6242C0.956493 10.6242 1.03781 10.6403 1.11368 10.6718C1.18955 10.7032 1.25849 10.7493 1.31656 10.8073L2.74937 12.2409V1.24952C2.74937 1.08375 2.81522 0.924784 2.93243 0.807574C3.04964 0.690363 3.20861 0.624515 3.37437 0.624515C3.54013 0.624515 3.6991 0.690363 3.81631 0.807574C3.93352 0.924784 3.99937 1.08375 3.99937 1.24952V12.2409L5.43218 10.8073C5.49023 10.7492 5.55916 10.7031 5.63503 10.6717C5.71091 10.6402 5.79224 10.624 5.87437 10.624C5.95651 10.624 6.03783 10.6402 6.11371 10.6717C6.18958 10.7031 6.25851 10.7492 6.31656 10.8073ZM13.8166 3.30733L11.3166 0.807328C11.2585 0.749217 11.1896 0.703118 11.1137 0.671665C11.0378 0.640213 10.9565 0.624023 10.8744 0.624023C10.7922 0.624023 10.7109 0.640213 10.635 0.671665C10.5592 0.703118 10.4902 0.749217 10.4322 0.807328L7.93218 3.30733C7.81491 3.4246 7.74902 3.58366 7.74902 3.74952C7.74902 3.91537 7.81491 4.07443 7.93218 4.1917C8.04946 4.30898 8.20852 4.37486 8.37437 4.37486C8.54022 4.37486 8.69928 4.30898 8.81656 4.1917L10.2494 2.75811V13.7495C10.2494 13.9153 10.3152 14.0742 10.4324 14.1915C10.5496 14.3087 10.7086 14.3745 10.8744 14.3745C11.0401 14.3745 11.1991 14.3087 11.3163 14.1915C11.4335 14.0742 11.4994 13.9153 11.4994 13.7495V2.75811L12.9322 4.1917C13.0495 4.30898 13.2085 4.37486 13.3744 4.37486C13.5402 4.37486 13.6993 4.30898 13.8166 4.1917C13.9338 4.07443 13.9997 3.91537 13.9997 3.74952C13.9997 3.58366 13.9338 3.4246 13.8166 3.30733Z" fill="#212121"/>
</svg>
